<svg class="main-svg" xmlns="http://www.w3.org/2000/svg" xmlns:xlink="http://www.w3.org/1999/xlink" width="700" height="500" style="" viewBox="0 0 700 500"><rect x="0" y="0" width="700" height="500" style="fill: rgb(255, 255, 255); fill-opacity: 1;"/><defs id="defs-df69a7"><g class="clips"><clipPath id="clipdf69a7xyplot" class="plotclip"><rect width="531" height="320"/></clipPath><clipPath class="axesclip" id="clipdf69a7x"><rect x="80" y="0" width="531" height="500"/></clipPath><clipPath class="axesclip" id="clipdf69a7y"><rect x="0" y="100" width="700" height="320"/></clipPath><clipPath class="axesclip" id="clipdf69a7xy"><rect x="80" y="100" width="531" height="320"/></clipPath></g><g class="gradients"/><g class="patterns"/></defs><g class="bglayer"/><g class="layer-below"><g class="imagelayer"/><g class="shapelayer"/></g><g class="cartesianlayer"><g class="subplot xy"><g class="layer-subplot"><g class="shapelayer"/><g class="imagelayer"/></g><g class="gridlayer"><g class="x"/><g class="y"/></g><g class="zerolinelayer"/><path class="xlines-below"/><path class="ylines-below"/><g class="overlines-below"/><g class="xaxislayer-below"/><g class="yaxislayer-below"/><g class="overaxes-below"/><g class="plot" transform="translate(80,100)" clip-path="url(#clipdf69a7xyplot)"><g class="scatterlayer mlayer"><g class="trace scatter tracebad794" style="stroke-miterlimit: 2; opacity: 1;"><g class="fills"/><g class="errorbars"><g class="errorbar"><path class="yerror" d="M26.3,80.25h8m-4,0V219.8m-4,0h8" style="vector-effect: non-scaling-stroke; stroke-width: 2px; stroke: rgb(31, 119, 180); stroke-opacity: 1;"/></g><g class="errorbar"><path class="yerror" d="M183.1,16h8m-4,0V129.17m-4,0h8" style="vector-effect: non-scaling-stroke; stroke-width: 2px; stroke: rgb(31, 119, 180); stroke-opacity: 1;"/></g><g class="errorbar"><path class="yerror" d="M339.9,88.05h8m-4,0V178.38m-4,0h8" style="vector-effect: non-scaling-stroke; stroke-width: 2px; stroke: rgb(31, 119, 180); stroke-opacity: 1;"/></g><g class="errorbar"><path class="yerror" d="M496.7,175.74h8m-4,0V270.41m-4,0h8" style="vector-effect: non-scaling-stroke; stroke-width: 2px; stroke: rgb(31, 119, 180); stroke-opacity: 1;"/></g></g><g class="lines"><path class="js-line" d="M30.3,150.02L187.1,72.59L343.9,133.21L500.7,223.08" style="vector-effect: non-scaling-stroke; fill: none; stroke: rgb(31, 119, 180); stroke-opacity: 1; stroke-width: 2px; opacity: 1;"/></g><g class="points"><path class="point" transform="translate(30.3,150.02)" d="M3,0A3,3 0 1,1 0,-3A3,3 0 0,1 3,0Z" style="opacity: 1; stroke-width: 0px; fill: rgb(31, 119, 180); fill-opacity: 1;"/><path class="point" transform="translate(187.1,72.59)" d="M3,0A3,3 0 1,1 0,-3A3,3 0 0,1 3,0Z" style="opacity: 1; stroke-width: 0px; fill: rgb(31, 119, 180); fill-opacity: 1;"/><path class="point" transform="translate(343.9,133.21)" d="M3,0A3,3 0 1,1 0,-3A3,3 0 0,1 3,0Z" style="opacity: 1; stroke-width: 0px; fill: rgb(31, 119, 180); fill-opacity: 1;"/><path class="point" transform="translate(500.7,223.08)" d="M3,0A3,3 0 1,1 0,-3A3,3 0 0,1 3,0Z" style="opacity: 1; stroke-width: 0px; fill: rgb(31, 119, 180); fill-opacity: 1;"/></g><g class="text"/></g><g class="trace scatter trace9fccdd" style="stroke-miterlimit: 2; opacity: 1;"><g class="fills"/><g class="errorbars"><g class="errorbar"><path class="yerror" d="M26.3,192.95h8m-4,0V262.42m-4,0h8" style="vector-effect: non-scaling-stroke; stroke-width: 2px; stroke: rgb(255, 127, 14); stroke-opacity: 1;"/></g><g class="errorbar"><path class="yerror" d="M183.1,160.01h8m-4,0V232.01m-4,0h8" style="vector-effect: non-scaling-stroke; stroke-width: 2px; stroke: rgb(255, 127, 14); stroke-opacity: 1;"/></g><g class="errorbar"><path class="yerror" d="M339.9,68.77h8m-4,0V178.52m-4,0h8" style="vector-effect: non-scaling-stroke; stroke-width: 2px; stroke: rgb(255, 127, 14); stroke-opacity: 1;"/></g><g class="errorbar"><path class="yerror" d="M496.7,183.56h8m-4,0V262.49m-4,0h8" style="vector-effect: non-scaling-stroke; stroke-width: 2px; stroke: rgb(255, 127, 14); stroke-opacity: 1;"/></g></g><g class="lines"><path class="js-line" d="M30.3,227.69L187.1,196.01L343.9,123.65L500.7,223.02" style="vector-effect: non-scaling-stroke; fill: none; stroke: rgb(255, 127, 14); stroke-opacity: 1; stroke-width: 2px; opacity: 1;"/></g><g class="points"><path class="point" transform="translate(30.3,227.69)" d="M3,0A3,3 0 1,1 0,-3A3,3 0 0,1 3,0Z" style="opacity: 1; stroke-width: 0px; fill: rgb(255, 127, 14); fill-opacity: 1;"/><path class="point" transform="translate(187.1,196.01)" d="M3,0A3,3 0 1,1 0,-3A3,3 0 0,1 3,0Z" style="opacity: 1; stroke-width: 0px; fill: rgb(255, 127, 14); fill-opacity: 1;"/><path class="point" transform="translate(343.9,123.65)" d="M3,0A3,3 0 1,1 0,-3A3,3 0 0,1 3,0Z" style="opacity: 1; stroke-width: 0px; fill: rgb(255, 127, 14); fill-opacity: 1;"/><path class="point" transform="translate(500.7,223.02)" d="M3,0A3,3 0 1,1 0,-3A3,3 0 0,1 3,0Z" style="opacity: 1; stroke-width: 0px; fill: rgb(255, 127, 14); fill-opacity: 1;"/></g><g class="text"/></g><g class="trace scatter traceaef576" style="stroke-miterlimit: 2; opacity: 1;"><g class="fills"/><g class="errorbars"><g class="errorbar"><path class="yerror" d="M26.3,162.39h8m-4,0V246.43m-4,0h8" style="vector-effect: non-scaling-stroke; stroke-width: 2px; stroke: rgb(44, 160, 44); stroke-opacity: 1;"/></g><g class="errorbar"><path class="yerror" d="M183.1,135.02h8m-4,0V229.3m-4,0h8" style="vector-effect: non-scaling-stroke; stroke-width: 2px; stroke: rgb(44, 160, 44); stroke-opacity: 1;"/></g><g class="errorbar"><path class="yerror" d="M339.9,119.95h8m-4,0V208.24m-4,0h8" style="vector-effect: non-scaling-stroke; stroke-width: 2px; stroke: rgb(44, 160, 44); stroke-opacity: 1;"/></g><g class="errorbar"><path class="yerror" d="M496.7,223.86h8m-4,0V283.26m-4,0h8" style="vector-effect: non-scaling-stroke; stroke-width: 2px; stroke: rgb(44, 160, 44); stroke-opacity: 1;"/></g></g><g class="lines"><path class="js-line" d="M30.3,204.41L187.1,182.16L343.9,164.09L500.7,253.56" style="vector-effect: non-scaling-stroke; fill: none; stroke: rgb(44, 160, 44); stroke-opacity: 1; stroke-width: 2px; opacity: 1;"/></g><g class="points"><path class="point" transform="translate(30.3,204.41)" d="M3,0A3,3 0 1,1 0,-3A3,3 0 0,1 3,0Z" style="opacity: 1; stroke-width: 0px; fill: rgb(44, 160, 44); fill-opacity: 1;"/><path class="point" transform="translate(187.1,182.16)" d="M3,0A3,3 0 1,1 0,-3A3,3 0 0,1 3,0Z" style="opacity: 1; stroke-width: 0px; fill: rgb(44, 160, 44); fill-opacity: 1;"/><path class="point" transform="translate(343.9,164.09)" d="M3,0A3,3 0 1,1 0,-3A3,3 0 0,1 3,0Z" style="opacity: 1; stroke-width: 0px; fill: rgb(44, 160, 44); fill-opacity: 1;"/><path class="point" transform="translate(500.7,253.56)" d="M3,0A3,3 0 1,1 0,-3A3,3 0 0,1 3,0Z" style="opacity: 1; stroke-width: 0px; fill: rgb(44, 160, 44); fill-opacity: 1;"/></g><g class="text"/></g><g class="trace scatter trace05937d" style="stroke-miterlimit: 2; opacity: 1;"><g class="fills"/><g class="errorbars"><g class="errorbar"><path class="yerror" d="M26.3,121.41h8m-4,0V259.34m-4,0h8" style="vector-effect: non-scaling-stroke; stroke-width: 2px; stroke: rgb(214, 39, 40); stroke-opacity: 1;"/></g><g class="errorbar"><path class="yerror" d="M183.1,142.01h8m-4,0V219.66m-4,0h8" style="vector-effect: non-scaling-stroke; stroke-width: 2px; stroke: rgb(214, 39, 40); stroke-opacity: 1;"/></g><g class="errorbar"><path class="yerror" d="M339.9,163.78h8m-4,0V234.59m-4,0h8" style="vector-effect: non-scaling-stroke; stroke-width: 2px; stroke: rgb(214, 39, 40); stroke-opacity: 1;"/></g><g class="errorbar"><path class="yerror" d="M496.7,158.75h8m-4,0V227.8m-4,0h8" style="vector-effect: non-scaling-stroke; stroke-width: 2px; stroke: rgb(214, 39, 40); stroke-opacity: 1;"/></g></g><g class="lines"><path class="js-line" d="M30.3,190.37L187.1,180.83L343.9,199.18L500.7,193.27" style="vector-effect: non-scaling-stroke; fill: none; stroke: rgb(214, 39, 40); stroke-opacity: 1; stroke-width: 2px; opacity: 1;"/></g><g class="points"><path class="point" transform="translate(30.3,190.37)" d="M3,0A3,3 0 1,1 0,-3A3,3 0 0,1 3,0Z" style="opacity: 1; stroke-width: 0px; fill: rgb(214, 39, 40); fill-opacity: 1;"/><path class="point" transform="translate(187.1,180.83)" d="M3,0A3,3 0 1,1 0,-3A3,3 0 0,1 3,0Z" style="opacity: 1; stroke-width: 0px; fill: rgb(214, 39, 40); fill-opacity: 1;"/><path class="point" transform="translate(343.9,199.18)" d="M3,0A3,3 0 1,1 0,-3A3,3 0 0,1 3,0Z" style="opacity: 1; stroke-width: 0px; fill: rgb(214, 39, 40); fill-opacity: 1;"/><path class="point" transform="translate(500.7,193.27)" d="M3,0A3,3 0 1,1 0,-3A3,3 0 0,1 3,0Z" style="opacity: 1; stroke-width: 0px; fill: rgb(214, 39, 40); fill-opacity: 1;"/></g><g class="text"/></g><g class="trace scatter trace8b20d7" style="stroke-miterlimit: 2; opacity: 1;"><g class="fills"/><g class="errorbars"><g class="errorbar"><path class="yerror" d="M26.3,241.51h8m-4,0V292.94m-4,0h8" style="vector-effect: non-scaling-stroke; stroke-width: 2px; stroke: rgb(148, 103, 189); stroke-opacity: 1;"/></g><g class="errorbar"><path class="yerror" d="M183.1,87.32h8m-4,0V167.7m-4,0h8" style="vector-effect: non-scaling-stroke; stroke-width: 2px; stroke: rgb(148, 103, 189); stroke-opacity: 1;"/></g><g class="errorbar"><path class="yerror" d="M339.9,211.21h8m-4,0V276.31m-4,0h8" style="vector-effect: non-scaling-stroke; stroke-width: 2px; stroke: rgb(148, 103, 189); stroke-opacity: 1;"/></g><g class="errorbar"><path class="yerror" d="M496.7,248.5h8m-4,0V304m-4,0h8" style="vector-effect: non-scaling-stroke; stroke-width: 2px; stroke: rgb(148, 103, 189); stroke-opacity: 1;"/></g></g><g class="lines"><path class="js-line" d="M30.3,267.22L187.1,127.51L343.9,243.76L500.7,276.25" style="vector-effect: non-scaling-stroke; fill: none; stroke: rgb(148, 103, 189); stroke-opacity: 1; stroke-width: 2px; opacity: 1;"/></g><g class="points"><path class="point" transform="translate(30.3,267.22)" d="M3,0A3,3 0 1,1 0,-3A3,3 0 0,1 3,0Z" style="opacity: 1; stroke-width: 0px; fill: rgb(148, 103, 189); fill-opacity: 1;"/><path class="point" transform="translate(187.1,127.51)" d="M3,0A3,3 0 1,1 0,-3A3,3 0 0,1 3,0Z" style="opacity: 1; stroke-width: 0px; fill: rgb(148, 103, 189); fill-opacity: 1;"/><path class="point" transform="translate(343.9,243.76)" d="M3,0A3,3 0 1,1 0,-3A3,3 0 0,1 3,0Z" style="opacity: 1; stroke-width: 0px; fill: rgb(148, 103, 189); fill-opacity: 1;"/><path class="point" transform="translate(500.7,276.25)" d="M3,0A3,3 0 1,1 0,-3A3,3 0 0,1 3,0Z" style="opacity: 1; stroke-width: 0px; fill: rgb(148, 103, 189); fill-opacity: 1;"/></g><g class="text"/></g><g class="trace scatter tracec4afa3" style="stroke-miterlimit: 2; opacity: 1;"><g class="fills"/><g class="errorbars"><g class="errorbar"><path class="yerror" d="M26.3,112.85h8m-4,0V218.57m-4,0h8" style="vector-effect: non-scaling-stroke; stroke-width: 2px; stroke: rgb(140, 86, 75); stroke-opacity: 1;"/></g><g class="errorbar"><path class="yerror" d="M183.1,122.9h8m-4,0V215.86m-4,0h8" style="vector-effect: non-scaling-stroke; stroke-width: 2px; stroke: rgb(140, 86, 75); stroke-opacity: 1;"/></g><g class="errorbar"><path class="yerror" d="M339.9,105.74h8m-4,0V200.98m-4,0h8" style="vector-effect: non-scaling-stroke; stroke-width: 2px; stroke: rgb(140, 86, 75); stroke-opacity: 1;"/></g><g class="errorbar"><path class="yerror" d="M496.7,137.66h8m-4,0V226.96m-4,0h8" style="vector-effect: non-scaling-stroke; stroke-width: 2px; stroke: rgb(140, 86, 75); stroke-opacity: 1;"/></g></g><g class="lines"><path class="js-line" d="M30.3,165.71L187.1,169.38L343.9,153.36L500.7,182.31" style="vector-effect: non-scaling-stroke; fill: none; stroke: rgb(140, 86, 75); stroke-opacity: 1; stroke-width: 2px; opacity: 1;"/></g><g class="points"><path class="point" transform="translate(30.3,165.71)" d="M3,0A3,3 0 1,1 0,-3A3,3 0 0,1 3,0Z" style="opacity: 1; stroke-width: 0px; fill: rgb(140, 86, 75); fill-opacity: 1;"/><path class="point" transform="translate(187.1,169.38)" d="M3,0A3,3 0 1,1 0,-3A3,3 0 0,1 3,0Z" style="opacity: 1; stroke-width: 0px; fill: rgb(140, 86, 75); fill-opacity: 1;"/><path class="point" transform="translate(343.9,153.36)" d="M3,0A3,3 0 1,1 0,-3A3,3 0 0,1 3,0Z" style="opacity: 1; stroke-width: 0px; fill: rgb(140, 86, 75); fill-opacity: 1;"/><path class="point" transform="translate(500.7,182.31)" d="M3,0A3,3 0 1,1 0,-3A3,3 0 0,1 3,0Z" style="opacity: 1; stroke-width: 0px; fill: rgb(140, 86, 75); fill-opacity: 1;"/></g><g class="text"/></g></g></g><g class="overplot"/><path class="xlines-above crisp" d="M79,420.5H612M79,99.5H612" style="fill: none; stroke-width: 1px; stroke: rgb(36, 36, 36); stroke-opacity: 1;"/><path class="ylines-above crisp" d="M79.5,100V420M611.5,100V420" style="fill: none; stroke-width: 1px; stroke: rgb(36, 36, 36); stroke-opacity: 1;"/><g class="overlines-above"/><g class="xaxislayer-above"><path class="xtick ticks crisp" d="M0,421v5" transform="translate(110.3,0)" style="stroke: rgb(68, 68, 68); stroke-opacity: 1; stroke-width: 1px;"/><path class="xtick ticks crisp" d="M0,421v5" transform="translate(267.1,0)" style="stroke: rgb(68, 68, 68); stroke-opacity: 1; stroke-width: 1px;"/><path class="xtick ticks crisp" d="M0,421v5" transform="translate(423.9,0)" style="stroke: rgb(68, 68, 68); stroke-opacity: 1; stroke-width: 1px;"/><path class="xtick ticks crisp" d="M0,421v5" transform="translate(580.7,0)" style="stroke: rgb(68, 68, 68); stroke-opacity: 1; stroke-width: 1px;"/><g class="xtick"><text text-anchor="middle" x="0" y="440.4" transform="translate(110.3,0)" style="font-family: 'Times New Roman'; font-size: 12px; fill: rgb(36, 36, 36); fill-opacity: 1; white-space: pre; opacity: 1;">20</text></g><g class="xtick"><text text-anchor="middle" x="0" y="440.4" transform="translate(267.1,0)" style="font-family: 'Times New Roman'; font-size: 12px; fill: rgb(36, 36, 36); fill-opacity: 1; white-space: pre; opacity: 1;">50</text></g><g class="xtick"><text text-anchor="middle" x="0" y="440.4" transform="translate(423.9,0)" style="font-family: 'Times New Roman'; font-size: 12px; fill: rgb(36, 36, 36); fill-opacity: 1; white-space: pre; opacity: 1;">80</text></g><g class="xtick"><text text-anchor="middle" x="0" y="440.4" transform="translate(580.7,0)" style="font-family: 'Times New Roman'; font-size: 12px; fill: rgb(36, 36, 36); fill-opacity: 1; white-space: pre; opacity: 1;">120</text></g></g><g class="yaxislayer-above"><path class="ytick ticks crisp" d="M79,0h-5" transform="translate(0,394.45)" style="stroke: rgb(68, 68, 68); stroke-opacity: 1; stroke-width: 1px;"/><path class="ytick ticks crisp" d="M79,0h-5" transform="translate(0,351.76)" style="stroke: rgb(68, 68, 68); stroke-opacity: 1; stroke-width: 1px;"/><path class="ytick ticks crisp" d="M79,0h-5" transform="translate(0,309.06)" style="stroke: rgb(68, 68, 68); stroke-opacity: 1; stroke-width: 1px;"/><path class="ytick ticks crisp" d="M79,0h-5" transform="translate(0,266.37)" style="stroke: rgb(68, 68, 68); stroke-opacity: 1; stroke-width: 1px;"/><path class="ytick ticks crisp" d="M79,0h-5" transform="translate(0,223.67000000000002)" style="stroke: rgb(68, 68, 68); stroke-opacity: 1; stroke-width: 1px;"/><path class="ytick ticks crisp" d="M79,0h-5" transform="translate(0,180.98000000000002)" style="stroke: rgb(68, 68, 68); stroke-opacity: 1; stroke-width: 1px;"/><path class="ytick ticks crisp" d="M79,0h-5" transform="translate(0,138.28)" style="stroke: rgb(68, 68, 68); stroke-opacity: 1; stroke-width: 1px;"/><g class="ytick"><text text-anchor="end" x="71.6" y="4.199999999999999" transform="translate(0,394.45)" style="font-family: 'Times New Roman'; font-size: 12px; fill: rgb(36, 36, 36); fill-opacity: 1; white-space: pre; opacity: 1;">0.4</text></g><g class="ytick"><text text-anchor="end" x="71.6" y="4.199999999999999" style="font-family: 'Times New Roman'; font-size: 12px; fill: rgb(36, 36, 36); fill-opacity: 1; white-space: pre; opacity: 1;" transform="translate(0,351.76)">0.6</text></g><g class="ytick"><text text-anchor="end" x="71.6" y="4.199999999999999" style="font-family: 'Times New Roman'; font-size: 12px; fill: rgb(36, 36, 36); fill-opacity: 1; white-space: pre; opacity: 1;" transform="translate(0,309.06)">0.8</text></g><g class="ytick"><text text-anchor="end" x="71.6" y="4.199999999999999" style="font-family: 'Times New Roman'; font-size: 12px; fill: rgb(36, 36, 36); fill-opacity: 1; white-space: pre; opacity: 1;" transform="translate(0,266.37)">1</text></g><g class="ytick"><text text-anchor="end" x="71.6" y="4.199999999999999" style="font-family: 'Times New Roman'; font-size: 12px; fill: rgb(36, 36, 36); fill-opacity: 1; white-space: pre; opacity: 1;" transform="translate(0,223.67000000000002)">1.2</text></g><g class="ytick"><text text-anchor="end" x="71.6" y="4.199999999999999" style="font-family: 'Times New Roman'; font-size: 12px; fill: rgb(36, 36, 36); fill-opacity: 1; white-space: pre; opacity: 1;" transform="translate(0,180.98000000000002)">1.4</text></g><g class="ytick"><text text-anchor="end" x="71.6" y="4.199999999999999" style="font-family: 'Times New Roman'; font-size: 12px; fill: rgb(36, 36, 36); fill-opacity: 1; white-space: pre; opacity: 1;" transform="translate(0,138.28)">1.6</text></g></g><g class="overaxes-above"/></g></g><g class="polarlayer"/><g class="smithlayer"/><g class="ternarylayer"/><g class="geolayer"/><g class="funnelarealayer"/><g class="pielayer"/><g class="iciclelayer"/><g class="treemaplayer"/><g class="sunburstlayer"/><g class="glimages"/><defs id="topdefs-df69a7"><g class="clips"/><clipPath id="legenddf69a7"><rect width="66" height="124" x="0" y="0"/></clipPath></defs><g class="layer-above"><g class="imagelayer"/><g class="shapelayer"/></g><g class="infolayer"><g class="legend" pointer-events="all" transform="translate(621.62,100)"><rect class="bg" shape-rendering="crispEdges" style="stroke: rgb(68, 68, 68); stroke-opacity: 1; fill: rgb(255, 255, 255); fill-opacity: 1; stroke-width: 0px;" width="66" height="124" x="0" y="0"/><g class="scrollbox" transform="" clip-path="url(#legenddf69a7)"><g class="groups"><g class="traces" transform="translate(0,14.5)" style="opacity: 1;"><text class="legendtext" text-anchor="start" x="40" y="4.680000000000001" style="font-family: 'Times New Roman'; font-size: 12px; fill: rgb(36, 36, 36); fill-opacity: 1; white-space: pre;">0.0</text><g class="layers" style="opacity: 1;"><g class="legendfill"/><g class="legendlines"><path class="js-line" d="M5,0h30" style="fill: none; stroke: rgb(31, 119, 180); stroke-opacity: 1; stroke-width: 2px;"/></g><g class="legendsymbols"><g class="legendpoints"><path class="scatterpts" transform="translate(20,0)" d="M3,0A3,3 0 1,1 0,-3A3,3 0 0,1 3,0Z" style="opacity: 1; stroke-width: 0px; fill: rgb(31, 119, 180); fill-opacity: 1;"/></g></g></g><rect class="legendtoggle" x="0" y="-9.5" width="61" height="19" style="fill: rgb(0, 0, 0); fill-opacity: 0;"/></g><g class="traces" transform="translate(0,33.5)" style="opacity: 1;"><text class="legendtext" text-anchor="start" x="40" y="4.680000000000001" style="font-family: 'Times New Roman'; font-size: 12px; fill: rgb(36, 36, 36); fill-opacity: 1; white-space: pre;">0.01</text><g class="layers" style="opacity: 1;"><g class="legendfill"/><g class="legendlines"><path class="js-line" d="M5,0h30" style="fill: none; stroke: rgb(255, 127, 14); stroke-opacity: 1; stroke-width: 2px;"/></g><g class="legendsymbols"><g class="legendpoints"><path class="scatterpts" transform="translate(20,0)" d="M3,0A3,3 0 1,1 0,-3A3,3 0 0,1 3,0Z" style="opacity: 1; stroke-width: 0px; fill: rgb(255, 127, 14); fill-opacity: 1;"/></g></g></g><rect class="legendtoggle" x="0" y="-9.5" width="61" height="19" style="fill: rgb(0, 0, 0); fill-opacity: 0;"/></g><g class="traces" transform="translate(0,52.5)" style="opacity: 1;"><text class="legendtext" text-anchor="start" x="40" y="4.680000000000001" style="font-family: 'Times New Roman'; font-size: 12px; fill: rgb(36, 36, 36); fill-opacity: 1; white-space: pre;">0.02</text><g class="layers" style="opacity: 1;"><g class="legendfill"/><g class="legendlines"><path class="js-line" d="M5,0h30" style="fill: none; stroke: rgb(44, 160, 44); stroke-opacity: 1; stroke-width: 2px;"/></g><g class="legendsymbols"><g class="legendpoints"><path class="scatterpts" transform="translate(20,0)" d="M3,0A3,3 0 1,1 0,-3A3,3 0 0,1 3,0Z" style="opacity: 1; stroke-width: 0px; fill: rgb(44, 160, 44); fill-opacity: 1;"/></g></g></g><rect class="legendtoggle" x="0" y="-9.5" width="61" height="19" style="fill: rgb(0, 0, 0); fill-opacity: 0;"/></g><g class="traces" transform="translate(0,71.5)" style="opacity: 1;"><text class="legendtext" text-anchor="start" x="40" y="4.680000000000001" style="font-family: 'Times New Roman'; font-size: 12px; fill: rgb(36, 36, 36); fill-opacity: 1; white-space: pre;">0.05</text><g class="layers" style="opacity: 1;"><g class="legendfill"/><g class="legendlines"><path class="js-line" d="M5,0h30" style="fill: none; stroke: rgb(214, 39, 40); stroke-opacity: 1; stroke-width: 2px;"/></g><g class="legendsymbols"><g class="legendpoints"><path class="scatterpts" transform="translate(20,0)" d="M3,0A3,3 0 1,1 0,-3A3,3 0 0,1 3,0Z" style="opacity: 1; stroke-width: 0px; fill: rgb(214, 39, 40); fill-opacity: 1;"/></g></g></g><rect class="legendtoggle" x="0" y="-9.5" width="61" height="19" style="fill: rgb(0, 0, 0); fill-opacity: 0;"/></g><g class="traces" transform="translate(0,90.5)" style="opacity: 1;"><text class="legendtext" text-anchor="start" x="40" y="4.680000000000001" style="font-family: 'Times New Roman'; font-size: 12px; fill: rgb(36, 36, 36); fill-opacity: 1; white-space: pre;">0.1</text><g class="layers" style="opacity: 1;"><g class="legendfill"/><g class="legendlines"><path class="js-line" d="M5,0h30" style="fill: none; stroke: rgb(148, 103, 189); stroke-opacity: 1; stroke-width: 2px;"/></g><g class="legendsymbols"><g class="legendpoints"><path class="scatterpts" transform="translate(20,0)" d="M3,0A3,3 0 1,1 0,-3A3,3 0 0,1 3,0Z" style="opacity: 1; stroke-width: 0px; fill: rgb(148, 103, 189); fill-opacity: 1;"/></g></g></g><rect class="legendtoggle" x="0" y="-9.5" width="61" height="19" style="fill: rgb(0, 0, 0); fill-opacity: 0;"/></g><g class="traces" transform="translate(0,109.5)" style="opacity: 1;"><text class="legendtext" text-anchor="start" x="40" y="4.680000000000001" style="font-family: 'Times New Roman'; font-size: 12px; fill: rgb(36, 36, 36); fill-opacity: 1; white-space: pre;">0.2</text><g class="layers" style="opacity: 1;"><g class="legendfill"/><g class="legendlines"><path class="js-line" d="M5,0h30" style="fill: none; stroke: rgb(140, 86, 75); stroke-opacity: 1; stroke-width: 2px;"/></g><g class="legendsymbols"><g class="legendpoints"><path class="scatterpts" transform="translate(20,0)" d="M3,0A3,3 0 1,1 0,-3A3,3 0 0,1 3,0Z" style="opacity: 1; stroke-width: 0px; fill: rgb(140, 86, 75); fill-opacity: 1;"/></g></g></g><rect class="legendtoggle" x="0" y="-9.5" width="61" height="19" style="fill: rgb(0, 0, 0); fill-opacity: 0;"/></g></g></g><rect class="scrollbar" rx="20" ry="3" width="0" height="0" style="fill: rgb(128, 139, 164); fill-opacity: 1;" x="0" y="0"/></g><g class="g-gtitle"/><g class="g-xtitle"><text class="xtitle" x="345.5" y="467.70625" text-anchor="middle" style="font-family: 'Times New Roman'; font-size: 14px; fill: rgb(36, 36, 36); opacity: 1; font-weight: normal; white-space: pre;">Number of jobs</text></g><g class="g-ytitle"><text class="ytitle" transform="rotate(-90,31.793750000000003,260)" x="31.793750000000003" y="260" text-anchor="middle" style="font-family: 'Times New Roman'; font-size: 14px; fill: rgb(36, 36, 36); opacity: 1; font-weight: normal; white-space: pre;">RPD (%)</text></g></g></svg>