<svg class="main-svg" xmlns="http://www.w3.org/2000/svg" xmlns:xlink="http://www.w3.org/1999/xlink" width="700" height="500" style="" viewBox="0 0 700 500"><rect x="0" y="0" width="700" height="500" style="fill: rgb(255, 255, 255); fill-opacity: 1;"/><defs id="defs-608ce3"><g class="clips"><clipPath id="clip608ce3xyplot" class="plotclip"><rect width="531" height="320"/></clipPath><clipPath class="axesclip" id="clip608ce3x"><rect x="80" y="0" width="531" height="500"/></clipPath><clipPath class="axesclip" id="clip608ce3y"><rect x="0" y="100" width="700" height="320"/></clipPath><clipPath class="axesclip" id="clip608ce3xy"><rect x="80" y="100" width="531" height="320"/></clipPath></g><g class="gradients"/><g class="patterns"/></defs><g class="bglayer"/><g class="layer-below"><g class="imagelayer"/><g class="shapelayer"/></g><g class="cartesianlayer"><g class="subplot xy"><g class="layer-subplot"><g class="shapelayer"/><g class="imagelayer"/></g><g class="gridlayer"><g class="x"/><g class="y"/></g><g class="zerolinelayer"/><path class="xlines-below"/><path class="ylines-below"/><g class="overlines-below"/><g class="xaxislayer-below"/><g class="yaxislayer-below"/><g class="overaxes-below"/><g class="plot" transform="translate(80,100)" clip-path="url(#clip608ce3xyplot)"><g class="scatterlayer mlayer"><g class="trace scatter traceb0469f" style="stroke-miterlimit: 2; opacity: 1;"><g class="fills"/><g class="errorbars"><g class="errorbar"><path class="yerror" d="M26.3,159.68h8m-4,0V229.25m-4,0h8" style="vector-effect: non-scaling-stroke; stroke-width: 2px; stroke: rgb(31, 119, 180); stroke-opacity: 1;"/></g><g class="errorbar"><path class="yerror" d="M183.1,145.45h8m-4,0V221.69m-4,0h8" style="vector-effect: non-scaling-stroke; stroke-width: 2px; stroke: rgb(31, 119, 180); stroke-opacity: 1;"/></g><g class="errorbar"><path class="yerror" d="M339.9,165.05h8m-4,0V238.94m-4,0h8" style="vector-effect: non-scaling-stroke; stroke-width: 2px; stroke: rgb(31, 119, 180); stroke-opacity: 1;"/></g><g class="errorbar"><path class="yerror" d="M496.7,238.73h8m-4,0V284.95m-4,0h8" style="vector-effect: non-scaling-stroke; stroke-width: 2px; stroke: rgb(31, 119, 180); stroke-opacity: 1;"/></g></g><g class="lines"><path class="js-line" d="M30.3,194.46L187.1,183.57L343.9,202L500.7,261.84" style="vector-effect: non-scaling-stroke; fill: none; stroke: rgb(31, 119, 180); stroke-opacity: 1; stroke-width: 2px; opacity: 1;"/></g><g class="points"><path class="point" transform="translate(30.3,194.46)" d="M3,0A3,3 0 1,1 0,-3A3,3 0 0,1 3,0Z" style="opacity: 1; stroke-width: 0px; fill: rgb(31, 119, 180); fill-opacity: 1;"/><path class="point" transform="translate(187.1,183.57)" d="M3,0A3,3 0 1,1 0,-3A3,3 0 0,1 3,0Z" style="opacity: 1; stroke-width: 0px; fill: rgb(31, 119, 180); fill-opacity: 1;"/><path class="point" transform="translate(343.9,202)" d="M3,0A3,3 0 1,1 0,-3A3,3 0 0,1 3,0Z" style="opacity: 1; stroke-width: 0px; fill: rgb(31, 119, 180); fill-opacity: 1;"/><path class="point" transform="translate(500.7,261.84)" d="M3,0A3,3 0 1,1 0,-3A3,3 0 0,1 3,0Z" style="opacity: 1; stroke-width: 0px; fill: rgb(31, 119, 180); fill-opacity: 1;"/></g><g class="text"/></g><g class="trace scatter trace8a13a6" style="stroke-miterlimit: 2; opacity: 1;"><g class="fills"/><g class="errorbars"><g class="errorbar"><path class="yerror" d="M26.3,143.71h8m-4,0V214.08m-4,0h8" style="vector-effect: non-scaling-stroke; stroke-width: 2px; stroke: rgb(255, 127, 14); stroke-opacity: 1;"/></g><g class="errorbar"><path class="yerror" d="M183.1,128.65h8m-4,0V196.76m-4,0h8" style="vector-effect: non-scaling-stroke; stroke-width: 2px; stroke: rgb(255, 127, 14); stroke-opacity: 1;"/></g><g class="errorbar"><path class="yerror" d="M339.9,151.2h8m-4,0V210.28m-4,0h8" style="vector-effect: non-scaling-stroke; stroke-width: 2px; stroke: rgb(255, 127, 14); stroke-opacity: 1;"/></g><g class="errorbar"><path class="yerror" d="M496.7,242.79h8m-4,0V304m-4,0h8" style="vector-effect: non-scaling-stroke; stroke-width: 2px; stroke: rgb(255, 127, 14); stroke-opacity: 1;"/></g></g><g class="lines"><path class="js-line" d="M30.3,178.89L187.1,162.7L343.9,180.74L500.7,273.39" style="vector-effect: non-scaling-stroke; fill: none; stroke: rgb(255, 127, 14); stroke-opacity: 1; stroke-width: 2px; opacity: 1;"/></g><g class="points"><path class="point" transform="translate(30.3,178.89)" d="M3,0A3,3 0 1,1 0,-3A3,3 0 0,1 3,0Z" style="opacity: 1; stroke-width: 0px; fill: rgb(255, 127, 14); fill-opacity: 1;"/><path class="point" transform="translate(187.1,162.7)" d="M3,0A3,3 0 1,1 0,-3A3,3 0 0,1 3,0Z" style="opacity: 1; stroke-width: 0px; fill: rgb(255, 127, 14); fill-opacity: 1;"/><path class="point" transform="translate(343.9,180.74)" d="M3,0A3,3 0 1,1 0,-3A3,3 0 0,1 3,0Z" style="opacity: 1; stroke-width: 0px; fill: rgb(255, 127, 14); fill-opacity: 1;"/><path class="point" transform="translate(500.7,273.39)" d="M3,0A3,3 0 1,1 0,-3A3,3 0 0,1 3,0Z" style="opacity: 1; stroke-width: 0px; fill: rgb(255, 127, 14); fill-opacity: 1;"/></g><g class="text"/></g><g class="trace scatter traceae9478" style="stroke-miterlimit: 2; opacity: 1;"><g class="fills"/><g class="errorbars"><g class="errorbar"><path class="yerror" d="M26.3,42.94h8m-4,0V146.12m-4,0h8" style="vector-effect: non-scaling-stroke; stroke-width: 2px; stroke: rgb(44, 160, 44); stroke-opacity: 1;"/></g><g class="errorbar"><path class="yerror" d="M183.1,16h8m-4,0V94.42m-4,0h8" style="vector-effect: non-scaling-stroke; stroke-width: 2px; stroke: rgb(44, 160, 44); stroke-opacity: 1;"/></g><g class="errorbar"><path class="yerror" d="M339.9,81.86h8m-4,0V183.75m-4,0h8" style="vector-effect: non-scaling-stroke; stroke-width: 2px; stroke: rgb(44, 160, 44); stroke-opacity: 1;"/></g><g class="errorbar"><path class="yerror" d="M496.7,215.26h8m-4,0V279.45m-4,0h8" style="vector-effect: non-scaling-stroke; stroke-width: 2px; stroke: rgb(44, 160, 44); stroke-opacity: 1;"/></g></g><g class="lines"><path class="js-line" d="M30.3,94.53L187.1,55.21L343.9,132.81L500.7,247.36" style="vector-effect: non-scaling-stroke; fill: none; stroke: rgb(44, 160, 44); stroke-opacity: 1; stroke-width: 2px; opacity: 1;"/></g><g class="points"><path class="point" transform="translate(30.3,94.53)" d="M3,0A3,3 0 1,1 0,-3A3,3 0 0,1 3,0Z" style="opacity: 1; stroke-width: 0px; fill: rgb(44, 160, 44); fill-opacity: 1;"/><path class="point" transform="translate(187.1,55.21)" d="M3,0A3,3 0 1,1 0,-3A3,3 0 0,1 3,0Z" style="opacity: 1; stroke-width: 0px; fill: rgb(44, 160, 44); fill-opacity: 1;"/><path class="point" transform="translate(343.9,132.81)" d="M3,0A3,3 0 1,1 0,-3A3,3 0 0,1 3,0Z" style="opacity: 1; stroke-width: 0px; fill: rgb(44, 160, 44); fill-opacity: 1;"/><path class="point" transform="translate(500.7,247.36)" d="M3,0A3,3 0 1,1 0,-3A3,3 0 0,1 3,0Z" style="opacity: 1; stroke-width: 0px; fill: rgb(44, 160, 44); fill-opacity: 1;"/></g><g class="text"/></g><g class="trace scatter tracee8c689" style="stroke-miterlimit: 2; opacity: 1;"><g class="fills"/><g class="errorbars"><g class="errorbar"><path class="yerror" d="M26.3,77.25h8m-4,0V201.68m-4,0h8" style="vector-effect: non-scaling-stroke; stroke-width: 2px; stroke: rgb(214, 39, 40); stroke-opacity: 1;"/></g><g class="errorbar"><path class="yerror" d="M183.1,41.34h8m-4,0V131.56m-4,0h8" style="vector-effect: non-scaling-stroke; stroke-width: 2px; stroke: rgb(214, 39, 40); stroke-opacity: 1;"/></g><g class="errorbar"><path class="yerror" d="M339.9,70.18h8m-4,0V164.27m-4,0h8" style="vector-effect: non-scaling-stroke; stroke-width: 2px; stroke: rgb(214, 39, 40); stroke-opacity: 1;"/></g><g class="errorbar"><path class="yerror" d="M496.7,258.09h8m-4,0V286m-4,0h8" style="vector-effect: non-scaling-stroke; stroke-width: 2px; stroke: rgb(214, 39, 40); stroke-opacity: 1;"/></g></g><g class="lines"><path class="js-line" d="M30.3,139.47L187.1,86.45L343.9,117.22L500.7,272.04" style="vector-effect: non-scaling-stroke; fill: none; stroke: rgb(214, 39, 40); stroke-opacity: 1; stroke-width: 2px; opacity: 1;"/></g><g class="points"><path class="point" transform="translate(30.3,139.47)" d="M3,0A3,3 0 1,1 0,-3A3,3 0 0,1 3,0Z" style="opacity: 1; stroke-width: 0px; fill: rgb(214, 39, 40); fill-opacity: 1;"/><path class="point" transform="translate(187.1,86.45)" d="M3,0A3,3 0 1,1 0,-3A3,3 0 0,1 3,0Z" style="opacity: 1; stroke-width: 0px; fill: rgb(214, 39, 40); fill-opacity: 1;"/><path class="point" transform="translate(343.9,117.22)" d="M3,0A3,3 0 1,1 0,-3A3,3 0 0,1 3,0Z" style="opacity: 1; stroke-width: 0px; fill: rgb(214, 39, 40); fill-opacity: 1;"/><path class="point" transform="translate(500.7,272.04)" d="M3,0A3,3 0 1,1 0,-3A3,3 0 0,1 3,0Z" style="opacity: 1; stroke-width: 0px; fill: rgb(214, 39, 40); fill-opacity: 1;"/></g><g class="text"/></g></g></g><g class="overplot"/><path class="xlines-above crisp" d="M79,420.5H612M79,99.5H612" style="fill: none; stroke-width: 1px; stroke: rgb(36, 36, 36); stroke-opacity: 1;"/><path class="ylines-above crisp" d="M79.5,100V420M611.5,100V420" style="fill: none; stroke-width: 1px; stroke: rgb(36, 36, 36); stroke-opacity: 1;"/><g class="overlines-above"/><g class="xaxislayer-above"><path class="xtick ticks crisp" d="M0,421v5" transform="translate(110.3,0)" style="stroke: rgb(68, 68, 68); stroke-opacity: 1; stroke-width: 1px;"/><path class="xtick ticks crisp" d="M0,421v5" transform="translate(267.1,0)" style="stroke: rgb(68, 68, 68); stroke-opacity: 1; stroke-width: 1px;"/><path class="xtick ticks crisp" d="M0,421v5" transform="translate(423.9,0)" style="stroke: rgb(68, 68, 68); stroke-opacity: 1; stroke-width: 1px;"/><path class="xtick ticks crisp" d="M0,421v5" transform="translate(580.7,0)" style="stroke: rgb(68, 68, 68); stroke-opacity: 1; stroke-width: 1px;"/><g class="xtick"><text text-anchor="middle" x="0" y="440.4" transform="translate(110.3,0)" style="font-family: 'Times New Roman'; font-size: 12px; fill: rgb(36, 36, 36); fill-opacity: 1; white-space: pre; opacity: 1;">20</text></g><g class="xtick"><text text-anchor="middle" x="0" y="440.4" transform="translate(267.1,0)" style="font-family: 'Times New Roman'; font-size: 12px; fill: rgb(36, 36, 36); fill-opacity: 1; white-space: pre; opacity: 1;">50</text></g><g class="xtick"><text text-anchor="middle" x="0" y="440.4" transform="translate(423.9,0)" style="font-family: 'Times New Roman'; font-size: 12px; fill: rgb(36, 36, 36); fill-opacity: 1; white-space: pre; opacity: 1;">80</text></g><g class="xtick"><text text-anchor="middle" x="0" y="440.4" transform="translate(580.7,0)" style="font-family: 'Times New Roman'; font-size: 12px; fill: rgb(36, 36, 36); fill-opacity: 1; white-space: pre; opacity: 1;">120</text></g></g><g class="yaxislayer-above"><path class="ytick ticks crisp" d="M79,0h-5" transform="translate(0,409.25)" style="stroke: rgb(68, 68, 68); stroke-opacity: 1; stroke-width: 1px;"/><path class="ytick ticks crisp" d="M79,0h-5" transform="translate(0,362.38)" style="stroke: rgb(68, 68, 68); stroke-opacity: 1; stroke-width: 1px;"/><path class="ytick ticks crisp" d="M79,0h-5" transform="translate(0,315.5)" style="stroke: rgb(68, 68, 68); stroke-opacity: 1; stroke-width: 1px;"/><path class="ytick ticks crisp" d="M79,0h-5" transform="translate(0,268.63)" style="stroke: rgb(68, 68, 68); stroke-opacity: 1; stroke-width: 1px;"/><path class="ytick ticks crisp" d="M79,0h-5" transform="translate(0,221.75)" style="stroke: rgb(68, 68, 68); stroke-opacity: 1; stroke-width: 1px;"/><path class="ytick ticks crisp" d="M79,0h-5" transform="translate(0,174.88)" style="stroke: rgb(68, 68, 68); stroke-opacity: 1; stroke-width: 1px;"/><path class="ytick ticks crisp" d="M79,0h-5" transform="translate(0,128)" style="stroke: rgb(68, 68, 68); stroke-opacity: 1; stroke-width: 1px;"/><g class="ytick"><text text-anchor="end" x="71.6" y="4.199999999999999" transform="translate(0,409.25)" style="font-family: 'Times New Roman'; font-size: 12px; fill: rgb(36, 36, 36); fill-opacity: 1; white-space: pre; opacity: 1;">0</text></g><g class="ytick"><text text-anchor="end" x="71.6" y="4.199999999999999" style="font-family: 'Times New Roman'; font-size: 12px; fill: rgb(36, 36, 36); fill-opacity: 1; white-space: pre; opacity: 1;" transform="translate(0,362.38)">0.2</text></g><g class="ytick"><text text-anchor="end" x="71.6" y="4.199999999999999" style="font-family: 'Times New Roman'; font-size: 12px; fill: rgb(36, 36, 36); fill-opacity: 1; white-space: pre; opacity: 1;" transform="translate(0,315.5)">0.4</text></g><g class="ytick"><text text-anchor="end" x="71.6" y="4.199999999999999" style="font-family: 'Times New Roman'; font-size: 12px; fill: rgb(36, 36, 36); fill-opacity: 1; white-space: pre; opacity: 1;" transform="translate(0,268.63)">0.6</text></g><g class="ytick"><text text-anchor="end" x="71.6" y="4.199999999999999" style="font-family: 'Times New Roman'; font-size: 12px; fill: rgb(36, 36, 36); fill-opacity: 1; white-space: pre; opacity: 1;" transform="translate(0,221.75)">0.8</text></g><g class="ytick"><text text-anchor="end" x="71.6" y="4.199999999999999" style="font-family: 'Times New Roman'; font-size: 12px; fill: rgb(36, 36, 36); fill-opacity: 1; white-space: pre; opacity: 1;" transform="translate(0,174.88)">1</text></g><g class="ytick"><text text-anchor="end" x="71.6" y="4.199999999999999" style="font-family: 'Times New Roman'; font-size: 12px; fill: rgb(36, 36, 36); fill-opacity: 1; white-space: pre; opacity: 1;" transform="translate(0,128)">1.2</text></g></g><g class="overaxes-above"/></g></g><g class="polarlayer"/><g class="smithlayer"/><g class="ternarylayer"/><g class="geolayer"/><g class="funnelarealayer"/><g class="pielayer"/><g class="iciclelayer"/><g class="treemaplayer"/><g class="sunburstlayer"/><g class="glimages"/><defs id="topdefs-608ce3"><g class="clips"/><clipPath id="legend608ce3"><rect width="66" height="86" x="0" y="0"/></clipPath></defs><g class="layer-above"><g class="imagelayer"/><g class="shapelayer"/></g><g class="infolayer"><g class="legend" pointer-events="all" transform="translate(621.62,100)"><rect class="bg" shape-rendering="crispEdges" style="stroke: rgb(68, 68, 68); stroke-opacity: 1; fill: rgb(255, 255, 255); fill-opacity: 1; stroke-width: 0px;" width="66" height="86" x="0" y="0"/><g class="scrollbox" transform="" clip-path="url(#legend608ce3)"><g class="groups"><g class="traces" transform="translate(0,14.5)" style="opacity: 1;"><text class="legendtext" text-anchor="start" x="40" y="4.680000000000001" style="font-family: 'Times New Roman'; font-size: 12px; fill: rgb(36, 36, 36); fill-opacity: 1; white-space: pre;">0.0</text><g class="layers" style="opacity: 1;"><g class="legendfill"/><g class="legendlines"><path class="js-line" d="M5,0h30" style="fill: none; stroke: rgb(31, 119, 180); stroke-opacity: 1; stroke-width: 2px;"/></g><g class="legendsymbols"><g class="legendpoints"><path class="scatterpts" transform="translate(20,0)" d="M3,0A3,3 0 1,1 0,-3A3,3 0 0,1 3,0Z" style="opacity: 1; stroke-width: 0px; fill: rgb(31, 119, 180); fill-opacity: 1;"/></g></g></g><rect class="legendtoggle" x="0" y="-9.5" width="61" height="19" style="fill: rgb(0, 0, 0); fill-opacity: 0;"/></g><g class="traces" transform="translate(0,33.5)" style="opacity: 1;"><text class="legendtext" text-anchor="start" x="40" y="4.680000000000001" style="font-family: 'Times New Roman'; font-size: 12px; fill: rgb(36, 36, 36); fill-opacity: 1; white-space: pre;">0.05</text><g class="layers" style="opacity: 1;"><g class="legendfill"/><g class="legendlines"><path class="js-line" d="M5,0h30" style="fill: none; stroke: rgb(255, 127, 14); stroke-opacity: 1; stroke-width: 2px;"/></g><g class="legendsymbols"><g class="legendpoints"><path class="scatterpts" transform="translate(20,0)" d="M3,0A3,3 0 1,1 0,-3A3,3 0 0,1 3,0Z" style="opacity: 1; stroke-width: 0px; fill: rgb(255, 127, 14); fill-opacity: 1;"/></g></g></g><rect class="legendtoggle" x="0" y="-9.5" width="61" height="19" style="fill: rgb(0, 0, 0); fill-opacity: 0;"/></g><g class="traces" transform="translate(0,52.5)" style="opacity: 1;"><text class="legendtext" text-anchor="start" x="40" y="4.680000000000001" style="font-family: 'Times New Roman'; font-size: 12px; fill: rgb(36, 36, 36); fill-opacity: 1; white-space: pre;">0.1</text><g class="layers" style="opacity: 1;"><g class="legendfill"/><g class="legendlines"><path class="js-line" d="M5,0h30" style="fill: none; stroke: rgb(44, 160, 44); stroke-opacity: 1; stroke-width: 2px;"/></g><g class="legendsymbols"><g class="legendpoints"><path class="scatterpts" transform="translate(20,0)" d="M3,0A3,3 0 1,1 0,-3A3,3 0 0,1 3,0Z" style="opacity: 1; stroke-width: 0px; fill: rgb(44, 160, 44); fill-opacity: 1;"/></g></g></g><rect class="legendtoggle" x="0" y="-9.5" width="61" height="19" style="fill: rgb(0, 0, 0); fill-opacity: 0;"/></g><g class="traces" transform="translate(0,71.5)" style="opacity: 1;"><text class="legendtext" text-anchor="start" x="40" y="4.680000000000001" style="font-family: 'Times New Roman'; font-size: 12px; fill: rgb(36, 36, 36); fill-opacity: 1; white-space: pre;">0.2</text><g class="layers" style="opacity: 1;"><g class="legendfill"/><g class="legendlines"><path class="js-line" d="M5,0h30" style="fill: none; stroke: rgb(214, 39, 40); stroke-opacity: 1; stroke-width: 2px;"/></g><g class="legendsymbols"><g class="legendpoints"><path class="scatterpts" transform="translate(20,0)" d="M3,0A3,3 0 1,1 0,-3A3,3 0 0,1 3,0Z" style="opacity: 1; stroke-width: 0px; fill: rgb(214, 39, 40); fill-opacity: 1;"/></g></g></g><rect class="legendtoggle" x="0" y="-9.5" width="61" height="19" style="fill: rgb(0, 0, 0); fill-opacity: 0;"/></g></g></g><rect class="scrollbar" rx="20" ry="3" width="0" height="0" style="fill: rgb(128, 139, 164); fill-opacity: 1;" x="0" y="0"/></g><g class="g-gtitle"/><g class="g-xtitle"><text class="xtitle" x="345.5" y="467.70625" text-anchor="middle" style="font-family: 'Times New Roman'; font-size: 14px; fill: rgb(36, 36, 36); opacity: 1; font-weight: normal; white-space: pre;">Number of jobs</text></g><g class="g-ytitle"><text class="ytitle" transform="rotate(-90,31.793750000000003,260)" x="31.793750000000003" y="260" text-anchor="middle" style="font-family: 'Times New Roman'; font-size: 14px; fill: rgb(36, 36, 36); opacity: 1; font-weight: normal; white-space: pre;">RPD (%)</text></g></g></svg>